<svg enable-background="new 0 0 512 512" height="316.227766" viewBox="0 0 512 512" width="316.227766" xmlns="http://www.w3.org/2000/svg"><circle cx="256" cy="256" fill="#393a59" r="256"/><path d="m469.953 214.521c0 60.932-25.4 115.928-66.194 154.979-13.511 12.941-28.719 24.123-45.25 33.193-30.584 16.794-65.722 26.346-103.074 26.346-37.353 0-72.472-9.544-103.057-26.338-4.93-2.697-9.736-5.586-14.412-8.659-11.032-7.223-21.356-15.454-30.847-24.543-40.794-39.043-66.204-94.047-66.204-154.979 0-118.476 96.044-214.52 214.52-214.52s214.518 96.045 214.518 214.521z" fill="#6a6577"/><path d="m186.159 233.576c-11.975 2.226-22.413 10.7-26.582 23.071-1.526 4.545-2.058 9.185-1.703 13.688.115 1.609.355 3.197.69 4.765-.533-.063-1.066-.104-1.599-.136-.46-.021-.92-.042-1.369-.052-11.588-.303-22.747 4.232-30.845 12.288-2.675 2.675-5.026 5.726-6.928 9.122-1.285 2.278-2.382 4.723-3.239 7.293-3.877 11.536-2.487 23.573 2.884 33.489l-.46.23c-4.671-10.271-13.406-18.651-24.952-22.528-18.422-6.186-38.118 1.076-48.431 16.488-.293.449-.585.899-.867 1.358-3.939-4.618-9.143-8.255-15.308-10.334-6.363-2.132-12.915-2.32-19.007-.888-1.254-4.733-2.361-9.509-3.344-14.346l20.292-37.71 7.659 7.774c9.446 9.592 23.97 12.027 36.018 6.029l-10.031-20.187 6.165 1.4c10.397 2.382 21.023-2.905 25.412-12.622l2.601-5.768 10.031 20.198c8.923-4.441 14.984-12.737 16.739-22.152.616-3.302.711-6.75.199-10.209l-1.567-10.804 4.765.742z" fill="#393a59"/><path d="m472.886 320.262c-.629 2.775-4.416 3.193-5.62.615-3.543-7.577-9.82-13.9-18.16-17.353-4.432-1.834-9.025-2.681-13.538-2.636-1.616.008-3.216.136-4.798.371.092-.531.168-1.06.237-1.592.057-.456.11-.91.153-1.36 1.089-11.544-2.679-22.988-10.172-31.607-2.476-2.858-5.366-5.402-8.626-7.536-2.189-1.44-4.548-2.694-7.058-3.731-11.247-4.649-23.343-4.074-33.604.609l-.2-.481c10.563-3.955 19.516-12.106 24.168-23.356 7.429-17.961 1.525-38.105-13.153-49.44-.425-.327-.854-.647-1.295-.957 4.873-3.62 8.86-8.562 11.351-14.574 3.448-8.342 3.405-17.252.545-25.112-.973-2.675 1.997-5.059 4.406-3.544l44.58 28.043c1.706 1.074 1.886 3.493.356 4.807l-5.199 4.466c-9.359 8.034-13.009 20.741-9.585 32.374.505 1.717 2.381 2.626 4.034 1.94l12.074-5.008c2.334-.969 4.744 1.211 4.016 3.63l-.002.007c-3.075 10.212 1.472 21.174 10.872 26.211 2.229 1.192 2.069 4.439-.265 5.407l-12.071 5.007c-1.657.688-2.33 2.662-1.469 4.237 4.169 7.62 11.288 13.059 19.507 15.177 3.256.844 6.688 1.165 10.173.897l6.836-.526c2.009-.155 3.596 1.68 3.15 3.647l-.169.746z" fill="#393a59"/><path d="m211.197 32.54c2.603 1.15 2.286 4.947-.475 5.634-8.116 2.023-15.527 6.968-20.518 14.49-2.65 3.998-4.363 8.342-5.187 12.779-.302 1.588-.485 3.183-.558 4.78-.503-.192-1.008-.368-1.517-.538-.437-.143-.872-.282-1.305-.411-11.12-3.285-23.074-1.786-32.972 3.913-3.28 1.882-6.332 4.229-9.052 7.018-1.833 1.872-3.517 3.947-5.018 6.21-6.722 10.145-8.481 22.127-5.856 33.095l-.51.103c-1.853-11.125-8.133-21.477-18.279-28.204-16.199-10.739-37.103-8.813-51.046 3.415-.402.355-.799.714-1.188 1.087-2.616-5.478-6.701-10.339-12.124-13.938-7.524-4.985-16.277-6.655-24.54-5.358-2.812.441-4.582-2.932-2.632-5.005l36.082-38.362c1.381-1.469 3.79-1.181 4.786.573l3.384 5.96c6.088 10.728 17.857 16.75 29.931 15.623 1.782-.166 3.034-1.833 2.679-3.586l-2.597-12.811c-.502-2.476 2.099-4.423 4.334-3.243l.007.004c9.431 4.979 21.063 2.622 27.811-5.636 1.598-1.958 4.753-1.179 5.256 1.299l2.596 12.807c.356 1.759 2.165 2.798 3.876 2.256 8.28-2.628 14.984-8.57 18.64-16.23 1.453-3.033 2.428-6.34 2.834-9.812l.797-6.81c.234-2.002 2.34-3.206 4.184-2.392l.7.309z" fill="#393a59"/><path d="m432.995 440.947c-16.123 15.444-34.273 28.787-54 39.612-36.498 20.041-78.43 31.441-123.005 31.441s-86.486-11.389-122.984-31.431c-19.728-10.815-37.878-24.168-54.011-39.623 16.374-41.566 56.195-71.325 103.173-72.997 1.379-.063 2.779-.094 4.18-.094h139.295c1.4 0 2.8.031 4.18.094 46.978 1.673 86.799 31.432 103.172 72.998z" fill="#282942"/><path d="m255.99 448.637s177.292-128.708 170.921-140.293c-9.517-17.313-23.649-29.124-37.607-37.138-23.432-13.446-46.411-16.174-46.411-16.174l-141.127 119.779z" fill="#d863bb"/><path d="m255.99 448.637s177.292-128.708 170.921-140.293c-9.517-17.313-23.649-29.124-37.607-37.138 14.271 15.792 27.977 39.815 6.892 60.89-3.406 3.406-7.154 5.713-11.146 7.101-13.939 4.847-26.906 12.126-37.591 22.305z" fill="#282942"/><path d="m255.99 448.637s-177.292-128.708-170.921-140.293c9.517-17.313 23.649-29.124 37.607-37.138 23.432-13.446 46.411-16.174 46.411-16.174z" fill="#d863bb"/><path d="m402.659 149.703-48.834 28.801v58.586c0 13.485 10.932 24.417 24.417 24.417 13.485 0 24.417-10.932 24.417-24.417z" fill="#ccc"/><path d="m109.318 149.703 48.834 28.801v58.586c0 13.485-10.932 24.417-24.417 24.417-13.485 0-24.417-10.932-24.417-24.417z" fill="#ccc"/><path d="m310.221 308.199v58.253c0 29.949-24.278 54.227-54.227 54.227-29.949 0-54.227-24.278-54.227-54.227v-58.253z" fill="#ccc"/><path d="m376.728 145.053v102.379c0 33.343-13.511 63.53-35.349 85.368-21.87 21.87-52.046 35.37-85.389 35.37-66.685 0-120.738-54.053-120.738-120.738v-102.379c0-5.507.366-10.94 1.087-16.248 2.215-16.52 7.784-31.974 15.997-45.672 21.076-35.234 186.243-35.234 207.308 0 8.213 13.699 13.782 29.153 15.997 45.672.721 5.308 1.087 10.741 1.087 16.248z" fill="#ededed"/><path d="m170.231 247.433v-102.378c0-60.739 44.86-110.987 103.251-119.463-5.712-.83-11.549-1.277-17.493-1.277-66.681 0-120.74 54.059-120.74 120.74v102.378c0 66.681 54.059 120.74 120.74 120.74 5.943 0 11.78-.448 17.494-1.277-58.392-8.476-103.252-58.724-103.252-119.463z" fill="#ccc"/><path d="m316.094 223.664v-23.14c0-6.035-4.892-10.928-10.928-10.928-6.035 0-10.928 4.892-10.928 10.928v23.14c0 6.035 4.892 10.928 10.928 10.928 6.036-.001 10.928-4.893 10.928-10.928z" fill="#393a59"/><path d="m195.892 200.523v23.14c0 6.035 4.892 10.928 10.928 10.928 6.035 0 10.928-4.892 10.928-10.928v-23.14c0-6.035-4.892-10.928-10.928-10.928-6.036.001-10.928 4.893-10.928 10.928z" fill="#393a59"/><g fill="#7f7d89"><circle cx="308.955" cy="204.581" r="7.14"/><circle cx="210.61" cy="204.581" r="7.14"/><circle cx="300.972" cy="221.539" r="4.105"/><circle cx="202.637" cy="221.539" r="4.105"/></g><path d="m161.949 128.805c0 1.261.049 2.511.147 3.748 1.162 14.771-4.176 29.397-15.378 39.096-3.501 3.032-7.346 5.679-11.467 7.876v-34.471c0-22.643 6.228-43.813 17.084-61.921 6.562 7.304 11.41 16.175 13.928 25.987-2.768 5.986-4.314 12.663-4.314 19.685z" fill="#282942"/><path d="m376.728 145.053v34.471c-4.121-2.197-7.965-4.844-11.467-7.876-11.2-9.699-16.54-24.325-15.378-39.096.097-1.237.147-2.487.147-3.748 0-7.022-1.546-13.699-4.315-19.686 2.518-9.812 7.367-18.683 13.928-25.987 10.857 18.109 17.085 39.279 17.085 61.922z" fill="#282942"/><path d="m182.185 176.161h47.364v27.167h-47.364z" fill="#ededed" transform="matrix(-.9327 -.3606 .3606 -.9327 329.4594 440.9586)"/><path d="m282.448 176.171h47.364v27.167h-47.364z" fill="#ededed" transform="matrix(.9327 -.3606 .3606 .9327 -47.8298 123.1597)"/><path d="m313.114 257.672c0 19.498-9.77 36.718-24.691 47.02-9.216 6.374-20.386 10.104-32.434 10.104s-23.218-3.73-32.434-10.104c-14.921-10.303-24.691-27.523-24.691-47.02 5.287 2.644 10.721 4.901 16.248 6.771 5.789 1.954 11.682 3.49 17.627 4.587 7.68 1.421 15.464 2.132 23.249 2.132 7.784 0 15.569-.711 23.249-2.132 5.945-1.097 11.839-2.633 17.627-4.587 5.529-1.871 10.963-4.128 16.25-6.771z" fill="#393a59"/><path d="m288.423 304.692c-9.216 6.374-20.386 10.104-32.434 10.104s-23.218-3.73-32.434-10.104c9.216-6.374 20.386-10.104 32.434-10.104s23.218 3.73 32.434 10.104z" fill="#e87bc2"/><path d="m323.306 169.904h-134.633l37.765 28.32h4.165c7.278 0 13.178 5.899 13.178 13.178v20.435c0 6.725 5.261 12.493 11.984 12.616 6.849.125 12.442-5.39 12.442-12.211v-20.84c0-7.278 5.9-13.178 13.178-13.178h4.157z" fill="#ccc"/><path d="m296.866 264.443c-.627 4.807-1.714 9.352-2.905 13.333-2.675 8.944-5.925 15.078-5.925 15.078l-5.611-15.193-3.187-8.631c5.946-1.097 11.839-2.633 17.628-4.587z" fill="#f0f0f0"/><path d="m232.741 269.03-3.187 8.631-5.611 15.193s-3.25-6.134-5.925-15.078c-1.191-3.981-2.278-8.526-2.905-13.333 5.789 1.954 11.682 3.49 17.628 4.587z" fill="#f0f0f0"/><path d="m169.618 177.742 10.334-16.078c1.844-2.869 5.666-3.701 8.536-1.857l42.28 27.176c5.771 3.709 2.098 12.656-4.615 11.24l-52.614-11.098c-4.231-.892-6.259-5.744-3.921-9.383z" fill="#393a59"/><path d="m342.361 177.742-10.334-16.078c-1.844-2.869-5.666-3.701-8.536-1.857l-42.28 27.176c-5.771 3.709-2.098 12.656 4.614 11.24l52.614-11.098c4.232-.892 6.26-5.744 3.922-9.383z" fill="#393a59"/><path d="m269.225 335.694h-26.47c-2.693 0-4.877-2.183-4.877-4.877 0-2.693 2.183-4.877 4.877-4.877h26.47c2.693 0 4.877 2.183 4.877 4.877-.001 2.695-2.184 4.877-4.877 4.877z" fill="#ccc"/><path d="m359.643 83.132c-21.065-35.234-59.601-58.817-103.654-58.817-44.042 0-82.578 23.583-103.654 58.817-8.213 13.699-13.782 29.153-15.997 45.672h25.61c0-25.966 21.055-47.02 47.02-47.02.631 0 1.26.013 1.885.038 22.046.87 39.219 19.546 39.219 41.61v6.424c0 3.267 2.649 5.916 5.916 5.916 3.267 0 5.916-2.649 5.916-5.916v-6.424c0-22.064 17.173-40.74 39.219-41.61.625-.025 1.254-.038 1.885-.038 25.966 0 47.02 21.055 47.02 47.02h25.61c-2.212-16.519-7.782-31.973-15.995-45.672z" fill="#282942"/><path d="m255.99 448.637s-177.292-128.708-170.921-140.293c9.517-17.313 23.649-29.124 37.607-37.138-14.271 15.792-27.977 39.815-6.892 60.89 3.406 3.406 7.154 5.713 11.146 7.101 13.939 4.847 26.906 12.126 37.591 22.305z" fill="#282942"/><path d="m298.436 441.095-39.554 14.658c-1.863.691-3.912.691-5.775 0l-39.554-14.658c-5.427-2.011-11.197 2.004-11.197 7.792v24.39c0 5.788 5.77 9.803 11.197 7.792l39.554-14.658c1.863-.691 3.912-.691 5.775 0l39.554 14.658c5.427 2.011 11.197-2.004 11.197-7.792v-24.39c0-5.788-5.769-9.803-11.197-7.792z" fill="#e87bc2"/><path d="m293.961 277.776c-2.675 8.944-5.925 15.078-5.925 15.078l-5.611-15.193c1.745-.648 3.636-1.003 5.611-1.003 2.09 0 4.086.397 5.925 1.118z" fill="#e87bc2"/><path d="m229.554 277.661-5.611 15.193s-3.25-6.134-5.925-15.078c1.839-.721 3.835-1.118 5.925-1.118 1.974 0 3.866.355 5.611 1.003z" fill="#e87bc2"/></svg>